<svg role="img" xmlns="http://www.w3.org/2000/svg">
    <def>
        <symbol id="laravel" viewBox="0 0 24 24" xmlns="http://www.w3.org/2000/svg">
            <title>Laravel icon</title>
            <path d="M23.644 5.43c.009.032.014.065.014.099v5.15c0 .135-.073.26-.189.326l-4.323 2.49v4.934c0 .135-.072.258-.188.326L9.931 23.95c-.021.012-.043.02-.066.027-.008.002-.016.008-.024.01-.063.018-.13.018-.192 0-.011-.002-.02-.008-.029-.012-.021-.008-.043-.014-.063-.025L.534 18.755c-.117-.068-.189-.191-.189-.326V2.974c0-.033.005-.066.014-.098.003-.012.01-.021.014-.032.006-.02.014-.04.023-.058.004-.013.015-.022.023-.033.012-.016.021-.031.033-.045.012-.01.025-.018.037-.027.014-.012.027-.024.041-.034h.001L5.044.05c.115-.067.259-.067.375 0l4.512 2.597h.002c.015.01.027.021.041.033.012.009.025.018.037.027.013.014.021.029.033.045.008.011.02.021.025.033.011.019.017.038.024.058.003.011.011.021.013.032.01.031.014.064.014.098v9.652l3.76-2.164V5.527c0-.033.005-.066.014-.098.003-.011.009-.021.013-.032.007-.02.014-.039.024-.059.007-.012.018-.021.025-.033.012-.015.021-.03.033-.043.012-.012.025-.02.037-.028.014-.011.026-.023.041-.032h.001l4.513-2.598c.116-.067.259-.067.375 0l4.513 2.598c.016.01.027.021.042.031.012.01.025.018.036.028.013.014.022.029.034.044.008.012.019.021.024.033.011.02.018.039.024.059.006.011.012.022.015.033zm-.74 5.032V6.179l-1.578.908-2.182 1.256v4.283l3.76-2.164zm-4.511 7.75v-4.287l-2.146 1.225-6.127 3.498v4.326l8.273-4.762zM1.095 3.624v14.588l8.273 4.762v-4.326l-4.322-2.445-.002-.003h-.002c-.014-.01-.025-.021-.04-.031-.011-.01-.024-.018-.035-.027l-.001-.002c-.013-.012-.021-.025-.031-.039-.01-.012-.021-.023-.028-.037h-.002c-.008-.014-.013-.031-.02-.047-.006-.016-.014-.027-.018-.043-.004-.018-.006-.037-.008-.057-.002-.014-.006-.027-.006-.041V5.789l-2.18-1.257-1.578-.908zM5.231.81l-3.76 2.164 3.76 2.164 3.758-2.164L5.231.81zm1.956 13.505l2.182-1.256V3.624l-1.58.909-2.182 1.256v9.435l1.58-.909zM18.769 3.364l-3.76 2.164 3.76 2.163 3.759-2.164-3.759-2.163zm-.376 4.979l-2.182-1.256-1.579-.908v4.283l2.182 1.256 1.579.908V8.343zm-8.65 9.654l5.514-3.148 2.756-1.572-3.757-2.163-4.324 2.489-3.941 2.27 3.752 2.124z"/>
        </symbol>
        <symbol id="wordpress" viewBox="0 0 24 24" xmlns="http://www.w3.org/2000/svg">
            <title>WordPress icon</title>
            <path d="M21.469 6.825c.84 1.537 1.318 3.3 1.318 5.175 0 3.979-2.156 7.456-5.363 9.325l3.295-9.527c.615-1.54.82-2.771.82-3.864 0-.405-.026-.78-.07-1.11m-7.981.105c.647-.03 1.232-.105 1.232-.105.582-.075.514-.93-.067-.899 0 0-1.755.135-2.88.135-1.064 0-2.85-.15-2.85-.15-.585-.03-.661.855-.075.885 0 0 .54.061 1.125.09l1.68 4.605-2.37 7.08L5.354 6.9c.649-.03 1.234-.1 1.234-.1.585-.075.516-.93-.065-.896 0 0-1.746.138-2.874.138-.2 0-.438-.008-.69-.015C4.911 3.15 8.235 1.215 12 1.215c2.809 0 5.365 1.072 7.286 2.833-.046-.003-.091-.009-.141-.009-1.06 0-1.812.923-1.812 1.914 0 .89.513 1.643 1.06 2.531.411.72.89 1.643.89 2.977 0 .915-.354 1.994-.821 3.479l-1.075 3.585-3.9-11.61.001.014zM12 22.784c-1.059 0-2.081-.153-3.048-.437l3.237-9.406 3.315 9.087c.024.053.05.101.078.149-1.12.393-2.325.609-3.582.609M1.211 12c0-1.564.336-3.05.935-4.39L7.29 21.709C3.694 19.96 1.212 16.271 1.211 12M12 0C5.385 0 0 5.385 0 12s5.385 12 12 12 12-5.385 12-12S18.615 0 12 0"/>
        </symbol>
        <symbol id="code" viewBox="0 0 640 512" xmlns="http://www.w3.org/2000/svg">
            <title>Code icon</title>
            <path d="M278.9 511.5l-61-17.7c-6.4-1.8-10-8.5-8.2-14.9L346.2 8.7c1.8-6.4 8.5-10 14.9-8.2l61 17.7c6.4 1.8 10 8.5 8.2 14.9L293.8 503.3c-1.9 6.4-8.5 10.1-14.9 8.2zm-114-112.2l43.5-46.4c4.6-4.9 4.3-12.7-.8-17.2L117 256l90.6-79.7c5.1-4.5 5.5-12.3.8-17.2l-43.5-46.4c-4.5-4.8-12.1-5.1-17-.5L3.8 247.2c-5.1 4.7-5.1 12.8 0 17.5l144.1 135.1c4.9 4.6 12.5 4.4 17-.5zm327.2.6l144.1-135.1c5.1-4.7 5.1-12.8 0-17.5L492.1 112.1c-4.8-4.5-12.4-4.3-17 .5L431.6 159c-4.6 4.9-4.3 12.7.8 17.2L523 256l-90.6 79.7c-5.1 4.5-5.5 12.3-.8 17.2l43.5 46.4c4.5 4.9 12.1 5.1 17 .6z"></path>
        </symbol>
    </def>
</svg>
