<svg xmlns="http://www.w3.org/2000/svg" class="favicon" x="0" y="0" version="1.1" viewBox="0 0 100 100" xml:space="preserve">
    <style type="text/css">
        path {
            animation: logo 2000ms 800ms ease-in-out infinite alternate, color 2000ms 800ms ease-in-out infinite alternate;
        }

        @keyframes logo {
            0% {
                stroke-width: 0;
            }
            25% {
                stroke-width: 0;
            }
            75% {
                stroke-width: 20;
            }
            100% {
                stroke-width: 20;
            }
        }

        @keyframes color {
            0% {
                fill: #007fc3;
                stroke: #007fc3;
            }
            100% {
                fill: #02c39a;
                stroke: #02c39a;
            }
        }
    </style>
    <g stroke="#007fc3" fill="#007fc3" stroke-linecap="round" stroke-linejoin="round">
        <path class="s" d="m25 85 2.25-5.25c8.7 4.65 16.5 7.05 25.2 7.05 20.55 0 33.3-10.35 33.3-24.3 0-10.2-7.5-18-21.3-21.75-16.35-4.35-24.6-5.25-24.6-11.25 0-3.9 3.3-6.45 9.15-6.45 9.3 0 17.25 4.35 22.35 12.3h10.65v-21.9h-10.65l-1.65 3.3c-7.95-4.2-15.45-6-24-6-20.25 0-32.25 10.05-32.25 24 0 6.45 2.85 12.15 7.8 15.75 6.6 4.8 15.6 6.75 26.4 9.6 7.95 2.1 11.4 3.15 11.4 7.2 0 4.2-3.75 6.6-10.95 6.6-10.2 0-18.3-5.55-21.9-15.3h-11.85v26.4z" />
    </g>
</svg>
