<?xml version="1.0" standalone="no"?>
<!DOCTYPE svg PUBLIC "-//W3C//DTD SVG 20010904//EN"
 "http://www.w3.org/TR/2001/REC-SVG-20010904/DTD/svg10.dtd">
<svg version="1.0" xmlns="http://www.w3.org/2000/svg"
 width="700.000000pt" height="700.000000pt" viewBox="0 0 700.000000 700.000000"
 preserveAspectRatio="xMidYMid meet">
<g transform="translate(0.000000,700.000000) scale(0.100000,-0.100000)"
fill="#000000" stroke="none">
<path d="M3157 6284 c-1 -1 -69 -4 -152 -8 -154 -6 -185 -9 -315 -27 -60 -8
-205 -34 -300 -54 -161 -34 -396 -117 -562 -200 -484 -243 -807 -651 -892
-1125 -25 -140 -27 -159 -27 -295 0 -392 131 -726 392 -995 199 -205 626 -431
1049 -555 25 -7 68 -20 95 -28 52 -16 409 -116 435 -122 202 -46 788 -208 890
-245 176 -65 278 -140 311 -231 16 -44 19 -152 5 -214 -15 -63 -67 -134 -139
-189 -34 -26 -155 -81 -198 -90 -13 -3 -42 -10 -64 -15 -136 -32 -433 -35
-600 -7 -16 3 -46 8 -65 11 -227 39 -490 164 -676 321 -189 159 -324 344 -436
596 -28 62 -54 115 -58 118 -13 8 -855 4 -868 -4 -9 -5 -12 -240 -12 -952 0
-930 0 -945 20 -952 15 -6 755 -9 781 -3 3 0 38 79 79 175 l74 174 120 -59
c67 -33 128 -63 137 -68 45 -25 325 -136 441 -175 136 -45 296 -91 357 -101
19 -3 37 -7 40 -9 3 -2 24 -7 46 -10 22 -4 65 -10 95 -16 168 -28 270 -35 520
-35 307 0 471 14 710 61 84 17 267 61 290 71 8 3 20 7 25 8 35 9 195 68 264
99 262 115 465 255 645 442 160 167 276 360 346 572 56 171 73 287 73 477 -1
146 -5 191 -37 343 -19 90 -103 281 -171 387 -121 189 -328 380 -570 526 -49
30 -97 56 -105 60 -8 3 -60 27 -115 53 -55 27 -129 59 -165 73 -36 13 -74 28
-85 33 -17 7 -116 38 -260 80 -33 10 -381 100 -405 105 -8 2 -121 30 -250 63
-628 160 -833 239 -961 372 -123 127 -108 359 32 484 68 61 157 101 281 127
89 18 126 20 268 16 91 -3 176 -8 190 -10 14 -3 41 -8 60 -11 478 -72 882
-334 1196 -773 l44 -63 390 0 c300 0 391 3 397 13 4 6 8 361 8 787 0 678 -2
777 -15 790 -13 13 -66 15 -380 14 -201 -1 -375 -2 -387 -3 -18 -1 -33 -22
-74 -103 -28 -57 -53 -105 -55 -107 -2 -2 -45 16 -96 41 -133 65 -267 121
-398 167 -110 38 -307 96 -360 106 -14 3 -36 7 -50 10 -31 6 -175 33 -211 39
-15 2 -53 7 -85 11 -33 4 -70 9 -84 11 -33 5 -419 21 -423 18z"/>
</g>
</svg>
